<?xml version="1.0" encoding="UTF-8" standalone="no"?>
<!DOCTYPE svg PUBLIC "-//W3C//DTD SVG 1.1//EN"
 "http://www.w3.org/Graphics/SVG/1.1/DTD/svg11.dtd">
<!-- Generated by graphviz version 2.42.4 (0)
 -->
<!-- Title: G Pages: 1 -->
<svg width="1201pt" height="462pt"
 viewBox="0.00 0.00 1201.00 461.64" xmlns="http://www.w3.org/2000/svg" xmlns:xlink="http://www.w3.org/1999/xlink">
<g id="graph0" class="graph" transform="scale(1 1) rotate(0) translate(4 457.64)">
<title>G</title>
<polygon fill="white" stroke="transparent" points="-4,4 -4,-457.64 1197,-457.64 1197,4 -4,4"/>
<g id="clust1" class="cluster">
<title>cluster_module.instances</title>
<polygon fill="none" stroke="black" points="878,-123.64 878,-198.64 1065,-198.64 1065,-123.64 878,-123.64"/>
<text text-anchor="middle" x="971.5" y="-183.44" font-family="sans-serif" font-size="14.00">module.instances</text>
</g>
<g id="clust2" class="cluster">
<title>cluster_module.security_group</title>
<polygon fill="none" stroke="black" points="167,-23.64 167,-152.64 722,-152.64 722,-23.64 167,-23.64"/>
<text text-anchor="middle" x="444.5" y="-137.44" font-family="sans-serif" font-size="14.00">module.security_group</text>
</g>
<g id="clust3" class="cluster">
<title>cluster_module.vpc</title>
<polygon fill="none" stroke="black" points="8,-206.64 8,-355.64 1123.5,-355.64 1123.5,-206.64 8,-206.64"/>
<text text-anchor="middle" x="565.75" y="-340.44" font-family="sans-serif" font-size="14.00">module.vpc</text>
</g>
<!-- data.aws_ami.ubuntu -->
<g id="node1" class="node">
<title>data.aws_ami.ubuntu</title>
<polygon fill="none" stroke="black" points="636.5,-196.64 478.5,-196.64 478.5,-160.64 636.5,-160.64 636.5,-196.64"/>
<text text-anchor="middle" x="557.5" y="-174.94" font-family="sans-serif" font-size="14.00">data.aws_ami.ubuntu</text>
</g>
<!-- aws_s3_bucket.terraform_state -->
<g id="node2" class="node">
<title>aws_s3_bucket.terraform_state</title>
<polygon fill="none" stroke="black" points="668,-426.64 447,-426.64 447,-390.64 668,-390.64 668,-426.64"/>
<text text-anchor="middle" x="557.5" y="-404.94" font-family="sans-serif" font-size="14.00">aws_s3_bucket.terraform_state</text>
</g>
<!-- aws_s3_bucket_server_side_encryption_configuration.encryption -->
<g id="node3" class="node">
<title>aws_s3_bucket_server_side_encryption_configuration.encryption</title>
<polygon fill="none" stroke="black" points="1193,-453.64 750,-453.64 750,-417.64 1193,-417.64 1193,-453.64"/>
<text text-anchor="middle" x="971.5" y="-431.94" font-family="sans-serif" font-size="14.00">aws_s3_bucket_server_side_encryption_configuration.encryption</text>
</g>
<!-- aws_s3_bucket_server_side_encryption_configuration.encryption&#45;&gt;aws_s3_bucket.terraform_state -->
<g id="edge1" class="edge">
<title>aws_s3_bucket_server_side_encryption_configuration.encryption&#45;&gt;aws_s3_bucket.terraform_state</title>
<path fill="none" stroke="black" d="M749.73,-421.17C725.2,-419.56 700.95,-417.97 678.39,-416.5"/>
<polygon fill="black" stroke="black" points="678.35,-412.99 668.14,-415.82 677.89,-419.97 678.35,-412.99"/>
</g>
<!-- aws_s3_bucket_versioning.versioning -->
<g id="node4" class="node">
<title>aws_s3_bucket_versioning.versioning</title>
<polygon fill="none" stroke="black" points="1103,-399.64 840,-399.64 840,-363.64 1103,-363.64 1103,-399.64"/>
<text text-anchor="middle" x="971.5" y="-377.94" font-family="sans-serif" font-size="14.00">aws_s3_bucket_versioning.versioning</text>
</g>
<!-- aws_s3_bucket_versioning.versioning&#45;&gt;aws_s3_bucket.terraform_state -->
<g id="edge2" class="edge">
<title>aws_s3_bucket_versioning.versioning&#45;&gt;aws_s3_bucket.terraform_state</title>
<path fill="none" stroke="black" d="M839.86,-390.2C788.04,-393.6 728.85,-397.47 678.17,-400.8"/>
<polygon fill="black" stroke="black" points="677.9,-397.31 668.15,-401.45 678.36,-404.29 677.9,-397.31"/>
</g>
<!-- module.instances.aws_instance.instances -->
<g id="node5" class="node">
<title>module.instances.aws_instance.instances</title>
<polygon fill="none" stroke="black" points="1057,-167.64 886,-167.64 886,-131.64 1057,-131.64 1057,-167.64"/>
<text text-anchor="middle" x="971.5" y="-145.94" font-family="sans-serif" font-size="14.00">aws_instance.instances</text>
</g>
<!-- module.instances.aws_instance.instances&#45;&gt;data.aws_ami.ubuntu -->
<g id="edge3" class="edge">
<title>module.instances.aws_instance.instances&#45;&gt;data.aws_ami.ubuntu</title>
<path fill="none" stroke="black" d="M885.63,-155.61C815.92,-160.52 717.5,-167.45 646.85,-172.42"/>
<polygon fill="black" stroke="black" points="646.37,-168.95 636.64,-173.14 646.86,-175.93 646.37,-168.95"/>
</g>
<!-- module.security_group.aws_security_group.sg -->
<g id="node6" class="node">
<title>module.security_group.aws_security_group.sg</title>
<polygon fill="none" stroke="black" points="340,-94.64 175,-94.64 175,-58.64 340,-58.64 340,-94.64"/>
<text text-anchor="middle" x="257.5" y="-72.94" font-family="sans-serif" font-size="14.00">aws_security_group.sg</text>
</g>
<!-- module.instances.aws_instance.instances&#45;&gt;module.security_group.aws_security_group.sg -->
<g id="edge4" class="edge">
<title>module.instances.aws_instance.instances&#45;&gt;module.security_group.aws_security_group.sg</title>
<path fill="none" stroke="black" d="M945.27,-131.55C902.08,-101.83 810.09,-43.84 722,-22.64 583.3,10.75 541.33,3.06 401,-22.64 367.48,-28.78 331.61,-42.41 304.25,-54.44"/>
<polygon fill="black" stroke="black" points="302.63,-51.33 294.94,-58.62 305.5,-57.72 302.63,-51.33"/>
</g>
<!-- module.vpc.aws_subnet.subnets -->
<g id="node13" class="node">
<title>module.vpc.aws_subnet.subnets</title>
<polygon fill="none" stroke="black" points="633.5,-250.64 481.5,-250.64 481.5,-214.64 633.5,-214.64 633.5,-250.64"/>
<text text-anchor="middle" x="557.5" y="-228.94" font-family="sans-serif" font-size="14.00">aws_subnet.subnets</text>
</g>
<!-- module.instances.aws_instance.instances&#45;&gt;module.vpc.aws_subnet.subnets -->
<g id="edge5" class="edge">
<title>module.instances.aws_instance.instances&#45;&gt;module.vpc.aws_subnet.subnets</title>
<path fill="none" stroke="black" d="M895.71,-167.68C846.5,-179.26 780.6,-194.21 722,-205.64 696.57,-210.6 668.8,-215.41 643.49,-219.56"/>
<polygon fill="black" stroke="black" points="642.85,-216.12 633.55,-221.18 643.98,-223.03 642.85,-216.12"/>
</g>
<!-- module.vpc.aws_vpc.this -->
<g id="node14" class="node">
<title>module.vpc.aws_vpc.this</title>
<polygon fill="none" stroke="black" points="114,-260.64 16,-260.64 16,-224.64 114,-224.64 114,-260.64"/>
<text text-anchor="middle" x="65" y="-238.94" font-family="sans-serif" font-size="14.00">aws_vpc.this</text>
</g>
<!-- module.security_group.aws_security_group.sg&#45;&gt;module.vpc.aws_vpc.this -->
<g id="edge6" class="edge">
<title>module.security_group.aws_security_group.sg&#45;&gt;module.vpc.aws_vpc.this</title>
<path fill="none" stroke="black" d="M235.75,-94.72C201.54,-124.53 133.24,-184.05 94.52,-217.79"/>
<polygon fill="black" stroke="black" points="91.96,-215.37 86.72,-224.58 96.56,-220.65 91.96,-215.37"/>
</g>
<!-- module.security_group.aws_vpc_security_group_egress_rule.egress -->
<g id="node7" class="node">
<title>module.security_group.aws_vpc_security_group_egress_rule.egress</title>
<polygon fill="none" stroke="black" points="709.5,-121.64 405.5,-121.64 405.5,-85.64 709.5,-85.64 709.5,-121.64"/>
<text text-anchor="middle" x="557.5" y="-99.94" font-family="sans-serif" font-size="14.00">aws_vpc_security_group_egress_rule.egress</text>
</g>
<!-- module.security_group.aws_vpc_security_group_egress_rule.egress&#45;&gt;module.security_group.aws_security_group.sg -->
<g id="edge7" class="edge">
<title>module.security_group.aws_vpc_security_group_egress_rule.egress&#45;&gt;module.security_group.aws_security_group.sg</title>
<path fill="none" stroke="black" d="M405.32,-89.94C386.53,-88.24 367.79,-86.54 350.29,-84.95"/>
<polygon fill="black" stroke="black" points="350.41,-81.45 340.14,-84.04 349.78,-88.42 350.41,-81.45"/>
</g>
<!-- module.security_group.aws_vpc_security_group_ingress_rule.ingress -->
<g id="node8" class="node">
<title>module.security_group.aws_vpc_security_group_ingress_rule.ingress</title>
<polygon fill="none" stroke="black" points="714,-67.64 401,-67.64 401,-31.64 714,-31.64 714,-67.64"/>
<text text-anchor="middle" x="557.5" y="-45.94" font-family="sans-serif" font-size="14.00">aws_vpc_security_group_ingress_rule.ingress</text>
</g>
<!-- module.security_group.aws_vpc_security_group_ingress_rule.ingress&#45;&gt;module.security_group.aws_security_group.sg -->
<g id="edge8" class="edge">
<title>module.security_group.aws_vpc_security_group_ingress_rule.ingress&#45;&gt;module.security_group.aws_security_group.sg</title>
<path fill="none" stroke="black" d="M400.95,-63.73C383.7,-65.29 366.57,-66.85 350.49,-68.3"/>
<polygon fill="black" stroke="black" points="349.72,-64.86 340.07,-69.25 350.35,-71.83 349.72,-64.86"/>
</g>
<!-- module.vpc.aws_internet_gateway.gw -->
<g id="node9" class="node">
<title>module.vpc.aws_internet_gateway.gw</title>
<polygon fill="none" stroke="black" points="350.5,-270.64 164.5,-270.64 164.5,-234.64 350.5,-234.64 350.5,-270.64"/>
<text text-anchor="middle" x="257.5" y="-248.94" font-family="sans-serif" font-size="14.00">aws_internet_gateway.gw</text>
</g>
<!-- module.vpc.aws_internet_gateway.gw&#45;&gt;module.vpc.aws_vpc.this -->
<g id="edge9" class="edge">
<title>module.vpc.aws_internet_gateway.gw&#45;&gt;module.vpc.aws_vpc.this</title>
<path fill="none" stroke="black" d="M164.32,-247.8C150.74,-247.09 137.08,-246.37 124.44,-245.71"/>
<polygon fill="black" stroke="black" points="124.26,-242.19 114.09,-245.16 123.89,-249.18 124.26,-242.19"/>
</g>
<!-- module.vpc.aws_route_table.private_route -->
<g id="node10" class="node">
<title>module.vpc.aws_route_table.private_route</title>
<polygon fill="none" stroke="black" points="365,-324.64 150,-324.64 150,-288.64 365,-288.64 365,-324.64"/>
<text text-anchor="middle" x="257.5" y="-302.94" font-family="sans-serif" font-size="14.00">aws_route_table.private_route</text>
</g>
<!-- module.vpc.aws_route_table.private_route&#45;&gt;module.vpc.aws_vpc.this -->
<g id="edge10" class="edge">
<title>module.vpc.aws_route_table.private_route&#45;&gt;module.vpc.aws_vpc.this</title>
<path fill="none" stroke="black" d="M178.98,-288.6C169.15,-285.84 159.29,-282.84 150,-279.64 137.75,-275.42 124.82,-270.15 112.86,-264.93"/>
<polygon fill="black" stroke="black" points="114.08,-261.64 103.52,-260.76 111.23,-268.03 114.08,-261.64"/>
</g>
<!-- module.vpc.aws_route_table.public_rt -->
<g id="node11" class="node">
<title>module.vpc.aws_route_table.public_rt</title>
<polygon fill="none" stroke="black" points="649.5,-304.64 465.5,-304.64 465.5,-268.64 649.5,-268.64 649.5,-304.64"/>
<text text-anchor="middle" x="557.5" y="-282.94" font-family="sans-serif" font-size="14.00">aws_route_table.public_rt</text>
</g>
<!-- module.vpc.aws_route_table.public_rt&#45;&gt;module.vpc.aws_internet_gateway.gw -->
<g id="edge11" class="edge">
<title>module.vpc.aws_route_table.public_rt&#45;&gt;module.vpc.aws_internet_gateway.gw</title>
<path fill="none" stroke="black" d="M465.47,-276.25C432.29,-272.47 394.56,-268.16 360.49,-264.27"/>
<polygon fill="black" stroke="black" points="360.85,-260.79 350.51,-263.14 360.05,-267.75 360.85,-260.79"/>
</g>
<!-- module.vpc.aws_route_table_association.public_assoc -->
<g id="node12" class="node">
<title>module.vpc.aws_route_table_association.public_assoc</title>
<polygon fill="none" stroke="black" points="1115.5,-277.64 827.5,-277.64 827.5,-241.64 1115.5,-241.64 1115.5,-277.64"/>
<text text-anchor="middle" x="971.5" y="-255.94" font-family="sans-serif" font-size="14.00">aws_route_table_association.public_assoc</text>
</g>
<!-- module.vpc.aws_route_table_association.public_assoc&#45;&gt;module.vpc.aws_route_table.public_rt -->
<g id="edge12" class="edge">
<title>module.vpc.aws_route_table_association.public_assoc&#45;&gt;module.vpc.aws_route_table.public_rt</title>
<path fill="none" stroke="black" d="M827.27,-269.02C772.06,-272.64 710.21,-276.7 659.76,-280"/>
<polygon fill="black" stroke="black" points="659.26,-276.53 649.51,-280.67 659.72,-283.51 659.26,-276.53"/>
</g>
<!-- module.vpc.aws_route_table_association.public_assoc&#45;&gt;module.vpc.aws_subnet.subnets -->
<g id="edge13" class="edge">
<title>module.vpc.aws_route_table_association.public_assoc&#45;&gt;module.vpc.aws_subnet.subnets</title>
<path fill="none" stroke="black" d="M827.27,-250.25C766.05,-246.24 696.65,-241.69 643.71,-238.22"/>
<polygon fill="black" stroke="black" points="643.89,-234.73 633.68,-237.57 643.43,-241.71 643.89,-234.73"/>
</g>
<!-- module.vpc.aws_subnet.subnets&#45;&gt;module.vpc.aws_vpc.this -->
<g id="edge14" class="edge">
<title>module.vpc.aws_subnet.subnets&#45;&gt;module.vpc.aws_vpc.this</title>
<path fill="none" stroke="black" d="M481.36,-226.11C399.61,-220.22 265.18,-214.1 150,-225.64 141.59,-226.48 132.78,-227.79 124.16,-229.31"/>
<polygon fill="black" stroke="black" points="123.35,-225.9 114.17,-231.18 124.64,-232.78 123.35,-225.9"/>
</g>
</g>
</svg>
