<?xml version="1.0" encoding="UTF-8" standalone="no"?>
<!DOCTYPE svg PUBLIC "-//W3C//DTD SVG 1.1//EN"
 "http://www.w3.org/Graphics/SVG/1.1/DTD/svg11.dtd">
<!-- Generated by graphviz version 2.42.4 (0)
 -->
<!-- Title: G Pages: 1 -->
<svg width="1409pt" height="290pt"
 viewBox="0.00 0.00 1409.00 290.00" xmlns="http://www.w3.org/2000/svg" xmlns:xlink="http://www.w3.org/1999/xlink">
<g id="graph0" class="graph" transform="scale(1 1) rotate(0) translate(4 286)">
<title>G</title>
<polygon fill="white" stroke="transparent" points="-4,4 -4,-286 1405,-286 1405,4 -4,4"/>
<g id="clust1" class="cluster">
<title>cluster_module.instances</title>
<polygon fill="none" stroke="black" points="512,-199 512,-274 692,-274 692,-199 512,-199"/>
<text text-anchor="middle" x="602" y="-258.8" font-family="sans-serif" font-size="14.00">module.instances</text>
</g>
<g id="clust2" class="cluster">
<title>cluster_module.security_group</title>
<polygon fill="none" stroke="black" points="774,-8 774,-137 1393,-137 1393,-8 774,-8"/>
<text text-anchor="middle" x="1083.5" y="-121.8" font-family="sans-serif" font-size="14.00">module.security_group</text>
</g>
<g id="clust3" class="cluster">
<title>cluster_module.vpc</title>
<polygon fill="none" stroke="black" points="8,-8 8,-191 754,-191 754,-8 8,-8"/>
<text text-anchor="middle" x="381" y="-175.8" font-family="sans-serif" font-size="14.00">module.vpc</text>
</g>
<!-- data.aws_ami.ubuntu -->
<g id="node1" class="node">
<title>data.aws_ami.ubuntu</title>
<polygon fill="none" stroke="black" points="409,-243 251,-243 251,-207 409,-207 409,-243"/>
<text text-anchor="middle" x="330" y="-221.3" font-family="sans-serif" font-size="14.00">data.aws_ami.ubuntu</text>
</g>
<!-- module.instances.aws_instance.instance -->
<g id="node2" class="node">
<title>module.instances.aws_instance.instance</title>
<polygon fill="none" stroke="black" points="684,-243 520,-243 520,-207 684,-207 684,-243"/>
<text text-anchor="middle" x="602" y="-221.3" font-family="sans-serif" font-size="14.00">aws_instance.instance</text>
</g>
<!-- module.instances.aws_instance.instance&#45;&gt;data.aws_ami.ubuntu -->
<g id="edge1" class="edge">
<title>module.instances.aws_instance.instance&#45;&gt;data.aws_ami.ubuntu</title>
<path fill="none" stroke="black" d="M519.99,-225C488.31,-225 451.89,-225 419.52,-225"/>
<polygon fill="black" stroke="black" points="419.17,-221.5 409.17,-225 419.17,-228.5 419.17,-221.5"/>
</g>
<!-- module.vpc.aws_subnet.subnets -->
<g id="node11" class="node">
<title>module.vpc.aws_subnet.subnets</title>
<polygon fill="none" stroke="black" points="406,-160 254,-160 254,-124 406,-124 406,-160"/>
<text text-anchor="middle" x="330" y="-138.3" font-family="sans-serif" font-size="14.00">aws_subnet.subnets</text>
</g>
<!-- module.instances.aws_instance.instance&#45;&gt;module.vpc.aws_subnet.subnets -->
<g id="edge2" class="edge">
<title>module.instances.aws_instance.instance&#45;&gt;module.vpc.aws_subnet.subnets</title>
<path fill="none" stroke="black" d="M519.77,-210.73C499.41,-206.4 477.74,-201.13 458,-195 431.03,-186.62 401.88,-174.68 378.33,-164.25"/>
<polygon fill="black" stroke="black" points="379.49,-160.94 368.93,-160.04 376.62,-167.33 379.49,-160.94"/>
</g>
<!-- module.security_group.aws_security_group.private&#45;sg -->
<g id="node3" class="node">
<title>module.security_group.aws_security_group.private&#45;sg</title>
<polygon fill="none" stroke="black" points="997,-106 782,-106 782,-70 997,-70 997,-106"/>
<text text-anchor="middle" x="889.5" y="-84.3" font-family="sans-serif" font-size="14.00">aws_security_group.private&#45;sg</text>
</g>
<!-- module.security_group.aws_security_group.public&#45;sg -->
<g id="node4" class="node">
<title>module.security_group.aws_security_group.public&#45;sg</title>
<polygon fill="none" stroke="black" points="994,-52 785,-52 785,-16 994,-16 994,-52"/>
<text text-anchor="middle" x="889.5" y="-30.3" font-family="sans-serif" font-size="14.00">aws_security_group.public&#45;sg</text>
</g>
<!-- module.vpc.aws_vpc.default -->
<g id="node12" class="node">
<title>module.vpc.aws_vpc.default</title>
<polygon fill="none" stroke="black" points="662,-52 542,-52 542,-16 662,-16 662,-52"/>
<text text-anchor="middle" x="602" y="-30.3" font-family="sans-serif" font-size="14.00">aws_vpc.default</text>
</g>
<!-- module.security_group.aws_security_group.public&#45;sg&#45;&gt;module.vpc.aws_vpc.default -->
<g id="edge3" class="edge">
<title>module.security_group.aws_security_group.public&#45;sg&#45;&gt;module.vpc.aws_vpc.default</title>
<path fill="none" stroke="black" d="M784.62,-34C747.34,-34 706.24,-34 672.57,-34"/>
<polygon fill="black" stroke="black" points="672.38,-30.5 662.38,-34 672.38,-37.5 672.38,-30.5"/>
</g>
<!-- module.security_group.aws_vpc_security_group_ingress_rule.priv_ssh_ipv4 -->
<g id="node5" class="node">
<title>module.security_group.aws_vpc_security_group_ingress_rule.priv_ssh_ipv4</title>
<polygon fill="none" stroke="black" points="1384.5,-106 1033.5,-106 1033.5,-70 1384.5,-70 1384.5,-106"/>
<text text-anchor="middle" x="1209" y="-84.3" font-family="sans-serif" font-size="14.00">aws_vpc_security_group_ingress_rule.priv_ssh_ipv4</text>
</g>
<!-- module.security_group.aws_vpc_security_group_ingress_rule.priv_ssh_ipv4&#45;&gt;module.security_group.aws_security_group.private&#45;sg -->
<g id="edge4" class="edge">
<title>module.security_group.aws_vpc_security_group_ingress_rule.priv_ssh_ipv4&#45;&gt;module.security_group.aws_security_group.private&#45;sg</title>
<path fill="none" stroke="black" d="M1033.46,-88C1024.75,-88 1016.11,-88 1007.64,-88"/>
<polygon fill="black" stroke="black" points="1007.39,-84.5 997.39,-88 1007.39,-91.5 1007.39,-84.5"/>
</g>
<!-- module.security_group.aws_vpc_security_group_ingress_rule.pub_ssh_ipv4 -->
<g id="node6" class="node">
<title>module.security_group.aws_vpc_security_group_ingress_rule.pub_ssh_ipv4</title>
<polygon fill="none" stroke="black" points="1385,-52 1033,-52 1033,-16 1385,-16 1385,-52"/>
<text text-anchor="middle" x="1209" y="-30.3" font-family="sans-serif" font-size="14.00">aws_vpc_security_group_ingress_rule.pub_ssh_ipv4</text>
</g>
<!-- module.security_group.aws_vpc_security_group_ingress_rule.pub_ssh_ipv4&#45;&gt;module.security_group.aws_security_group.public&#45;sg -->
<g id="edge5" class="edge">
<title>module.security_group.aws_vpc_security_group_ingress_rule.pub_ssh_ipv4&#45;&gt;module.security_group.aws_security_group.public&#45;sg</title>
<path fill="none" stroke="black" d="M1033,-34C1023.28,-34 1013.65,-34 1004.25,-34"/>
<polygon fill="black" stroke="black" points="1004.15,-30.5 994.15,-34 1004.15,-37.5 1004.15,-30.5"/>
</g>
<!-- module.vpc.aws_internet_gateway.gw -->
<g id="node7" class="node">
<title>module.vpc.aws_internet_gateway.gw</title>
<polygon fill="none" stroke="black" points="202,-106 16,-106 16,-70 202,-70 202,-106"/>
<text text-anchor="middle" x="109" y="-84.3" font-family="sans-serif" font-size="14.00">aws_internet_gateway.gw</text>
</g>
<!-- module.vpc.aws_route_table.private_route -->
<g id="node8" class="node">
<title>module.vpc.aws_route_table.private_route</title>
<polygon fill="none" stroke="black" points="709.5,-160 494.5,-160 494.5,-124 709.5,-124 709.5,-160"/>
<text text-anchor="middle" x="602" y="-138.3" font-family="sans-serif" font-size="14.00">aws_route_table.private_route</text>
</g>
<!-- module.vpc.aws_route_table.public_rt -->
<g id="node9" class="node">
<title>module.vpc.aws_route_table.public_rt</title>
<polygon fill="none" stroke="black" points="422,-106 238,-106 238,-70 422,-70 422,-106"/>
<text text-anchor="middle" x="330" y="-84.3" font-family="sans-serif" font-size="14.00">aws_route_table.public_rt</text>
</g>
<!-- module.vpc.aws_route_table.public_rt&#45;&gt;module.vpc.aws_internet_gateway.gw -->
<g id="edge6" class="edge">
<title>module.vpc.aws_route_table.public_rt&#45;&gt;module.vpc.aws_internet_gateway.gw</title>
<path fill="none" stroke="black" d="M237.71,-88C229.37,-88 220.88,-88 212.44,-88"/>
<polygon fill="black" stroke="black" points="212.2,-84.5 202.2,-88 212.2,-91.5 212.2,-84.5"/>
</g>
<!-- module.vpc.aws_route_table_association.public_assoc -->
<g id="node10" class="node">
<title>module.vpc.aws_route_table_association.public_assoc</title>
<polygon fill="none" stroke="black" points="746,-106 458,-106 458,-70 746,-70 746,-106"/>
<text text-anchor="middle" x="602" y="-84.3" font-family="sans-serif" font-size="14.00">aws_route_table_association.public_assoc</text>
</g>
<!-- module.vpc.aws_route_table_association.public_assoc&#45;&gt;module.vpc.aws_route_table.public_rt -->
<g id="edge7" class="edge">
<title>module.vpc.aws_route_table_association.public_assoc&#45;&gt;module.vpc.aws_route_table.public_rt</title>
<path fill="none" stroke="black" d="M457.7,-88C449.08,-88 440.52,-88 432.13,-88"/>
<polygon fill="black" stroke="black" points="432.01,-84.5 422.01,-88 432.01,-91.5 432.01,-84.5"/>
</g>
<!-- module.vpc.aws_route_table_association.public_assoc&#45;&gt;module.vpc.aws_subnet.subnets -->
<g id="edge8" class="edge">
<title>module.vpc.aws_route_table_association.public_assoc&#45;&gt;module.vpc.aws_subnet.subnets</title>
<path fill="none" stroke="black" d="M504.02,-106C488.61,-108.95 472.86,-112.02 458,-115 444.48,-117.71 430.18,-120.67 416.23,-123.6"/>
<polygon fill="black" stroke="black" points="415.22,-120.24 406.15,-125.73 416.66,-127.09 415.22,-120.24"/>
</g>
</g>
</svg>
